<svg width="40" height="40" viewBox="0 0 40 40" fill="none" xmlns="http://www.w3.org/2000/svg">
<rect width="40" height="40" fill="#F5F5F5"/>
<g id="&#208;&#147;&#208;&#190;&#209;&#130;&#208;&#190;&#208;&#178;&#209;&#139;&#208;&#181; &#209;&#141;&#208;&#186;&#209;&#128;&#208;&#176;&#208;&#189;&#209;&#139;">
<path d="M-3320 -10366C-3320 -10367.1 -3319.1 -10368 -3318 -10368H31471C31472.1 -10368 31473 -10367.1 31473 -10366V5606C31473 5607.1 31472.1 5608 31471 5608H-3318C-3319.11 5608 -3320 5607.1 -3320 5606V-10366Z" fill="white"/>
<path d="M-3318 -10367H31471V-10369H-3318V-10367ZM31472 -10366V5606H31474V-10366H31472ZM31471 5607H-3318V5609H31471V5607ZM-3319 5606V-10366H-3321V5606H-3319ZM-3318 5607C-3318.55 5607 -3319 5606.55 -3319 5606H-3321C-3321 5607.66 -3319.66 5609 -3318 5609V5607ZM31472 5606C31472 5606.55 31471.6 5607 31471 5607V5609C31472.7 5609 31474 5607.66 31474 5606H31472ZM31471 -10367C31471.6 -10367 31472 -10366.6 31472 -10366H31474C31474 -10367.7 31472.7 -10369 31471 -10369V-10367ZM-3318 -10369C-3319.66 -10369 -3321 -10367.7 -3321 -10366H-3319C-3319 -10366.6 -3318.55 -10367 -3318 -10367V-10369Z" fill="black" fill-opacity="0.1"/>
<g id="&#208;&#191;&#208;&#190;&#208;&#180;&#208;&#178;&#208;&#176;&#208;&#187;">
<g id="Footer">
<g id="Social Networks">
<g id="Frame 40">
<g clip-path="url(#clip0_15_5)">
<rect x="0.308594" width="39.6078" height="39.6078" rx="8.80174" fill="url(#paint0_linear_15_5)"/>
<path id="Vector" d="M17.9126 17.6028H13.5117V23.1038H17.9126V39.6071H25.2473V23.1038H30.5284L31.1152 17.6028H25.2473V15.2648C25.2473 14.0271 25.5407 13.477 26.861 13.477H31.1152V6.60059H25.5407C20.2597 6.60059 17.9126 8.80102 17.9126 12.9268V17.6028Z" fill="#EEEEFE"/>
</g>
</g>
</g>
</g>
</g>
</g>
<defs>
<linearGradient id="paint0_linear_15_5" x1="20.1125" y1="0" x2="20.1125" y2="39.6078" gradientUnits="userSpaceOnUse">
<stop stop-color="#EA780F"/>
<stop offset="1" stop-color="#F4CB52"/>
</linearGradient>
<clipPath id="clip0_15_5">
<rect x="0.308594" width="39.6078" height="39.6078" rx="8.80174" fill="white"/>
</clipPath>
</defs>
</svg>
