<svg width="40" height="40" viewBox="0 0 40 40" fill="none" xmlns="http://www.w3.org/2000/svg">
<rect width="40" height="40" fill="#F5F5F5"/>
<g id="&#208;&#159;&#208;&#190;&#208;&#180;&#208;&#191;&#208;&#184;&#209;&#129;&#208;&#186;&#208;&#176;" clip-path="url(#clip0_15_5)">
<rect width="1512" height="2282" transform="translate(-1377 -2094)" fill="url(#paint0_linear_15_5)"/>
<g id="&#209;&#132;&#208;&#190;&#208;&#189;">
<g id="&#209;&#128;&#208;&#176;&#208;&#188;&#208;&#186;&#208;&#176; &#209;&#131;&#208;&#183;&#208;&#186;&#208;&#176;&#209;&#143;" filter="url(#filter0_f_15_5)">
<path fill-rule="evenodd" clip-rule="evenodd" d="M-1349.5 -2077.13L-1512.5 -790.127L213.5 -824L87.5 -2077.13H-1349.5ZM-1299.5 -2027.13L-1973 695.873L347.5 506.873L601.5 -790.127L555 -2027.13H-1299.5Z" fill="black" fill-opacity="0.9"/>
</g>
</g>
<g id="Footer">
<g id="Social Networks">
<g id="Frame 37">
<g clip-path="url(#clip1_15_5)">
<rect x="0.308594" width="39.6078" height="39.6078" rx="8.80174" fill="url(#paint1_linear_15_5)"/>
<path id="Vector" d="M17.9126 17.6025H13.5117V23.1036H17.9126V39.6069H25.2473V23.1036H30.5284L31.1152 17.6025H25.2473V15.2646C25.2473 14.0268 25.5407 13.4767 26.861 13.4767H31.1152V6.60034H25.5407C20.2597 6.60034 17.9126 8.80077 17.9126 12.9266V17.6025Z" fill="#EEEEFE"/>
</g>
</g>
</g>
</g>
</g>
<defs>
<filter id="filter0_f_15_5" x="-2173" y="-2277.13" width="2974.5" height="3173" filterUnits="userSpaceOnUse" color-interpolation-filters="sRGB">
<feFlood flood-opacity="0" result="BackgroundImageFix"/>
<feBlend mode="normal" in="SourceGraphic" in2="BackgroundImageFix" result="shape"/>
<feGaussianBlur stdDeviation="100" result="effect1_foregroundBlur_15_5"/>
</filter>
<linearGradient id="paint0_linear_15_5" x1="756" y1="0" x2="756" y2="2282" gradientUnits="userSpaceOnUse">
<stop stop-color="#250D3C"/>
<stop offset="0.911458"/>
</linearGradient>
<linearGradient id="paint1_linear_15_5" x1="20.1125" y1="0" x2="20.1125" y2="39.6078" gradientUnits="userSpaceOnUse">
<stop stop-color="#EA780F"/>
<stop offset="1" stop-color="#F4CB52"/>
</linearGradient>
<clipPath id="clip0_15_5">
<rect width="1512" height="2282" fill="white" transform="translate(-1377 -2094)"/>
</clipPath>
<clipPath id="clip1_15_5">
<rect x="0.308594" width="39.6078" height="39.6078" rx="8.80174" fill="white"/>
</clipPath>
</defs>
</svg>
