<svg width="33" height="32" viewBox="0 0 33 32" fill="none" xmlns="http://www.w3.org/2000/svg">
<g id="Frame 39">
<rect x="0.851562" width="31.6862" height="31.6863" rx="7.04139" fill="black"/>
<path id="Vector" d="M10.5337 7.48059C10.5337 8.71283 9.56549 9.68102 8.33325 9.68102C7.101 9.68102 6.13281 8.71283 6.13281 7.48059C6.13281 6.24834 7.101 5.28015 8.33325 5.28015C9.56549 5.28015 10.5337 6.24834 10.5337 7.48059ZM10.5337 11.4414H6.13281V25.5242H10.5337V11.4414ZM17.5751 11.4414H13.1742V25.5242H17.5751V18.1307C17.5751 13.9939 22.8561 13.6418 22.8561 18.1307V25.5242H27.2569V16.6344C27.2569 9.68102 19.4234 9.94508 17.5751 13.3778V11.4414Z" fill="#EEEEFE"/>
</g>
</svg>
