<svg width="41" height="40" viewBox="0 0 41 40" fill="none" xmlns="http://www.w3.org/2000/svg">
<rect width="41" height="40" fill="#F5F5F5"/>
<g id="&#208;&#147;&#208;&#190;&#209;&#130;&#208;&#190;&#208;&#178;&#209;&#139;&#208;&#181; &#209;&#141;&#208;&#186;&#209;&#128;&#208;&#176;&#208;&#189;&#209;&#139;">
<path d="M-3245 -10366C-3245 -10367.1 -3244.1 -10368 -3243 -10368H31546C31547.1 -10368 31548 -10367.1 31548 -10366V5606C31548 5607.1 31547.1 5608 31546 5608H-3243C-3244.11 5608 -3245 5607.1 -3245 5606V-10366Z" fill="white"/>
<path d="M-3243 -10367H31546V-10369H-3243V-10367ZM31547 -10366V5606H31549V-10366H31547ZM31546 5607H-3243V5609H31546V5607ZM-3244 5606V-10366H-3246V5606H-3244ZM-3243 5607C-3243.55 5607 -3244 5606.55 -3244 5606H-3246C-3246 5607.66 -3244.66 5609 -3243 5609V5607ZM31547 5606C31547 5606.55 31546.6 5607 31546 5607V5609C31547.7 5609 31549 5607.66 31549 5606H31547ZM31546 -10367C31546.6 -10367 31547 -10366.6 31547 -10366H31549C31549 -10367.7 31547.7 -10369 31546 -10369V-10367ZM-3243 -10369C-3244.66 -10369 -3246 -10367.7 -3246 -10366H-3244C-3244 -10366.6 -3243.55 -10367 -3243 -10367V-10369Z" fill="black" fill-opacity="0.1"/>
<g id="&#208;&#191;&#208;&#190;&#208;&#180;&#208;&#178;&#208;&#176;&#208;&#187;">
<g id="Footer">
<g id="Social Networks">
<g id="Frame 39">
<rect x="0.494141" width="39.6078" height="39.6078" rx="8.80174" fill="url(#paint0_linear_15_5)"/>
<path id="Vector" d="M12.5963 9.35113C12.5963 10.8914 11.3861 12.1017 9.84576 12.1017C8.30545 12.1017 7.09521 10.8914 7.09521 9.35113C7.09521 7.81082 8.30545 6.60059 9.84576 6.60059C11.3861 6.60059 12.5963 7.81082 12.5963 9.35113ZM12.5963 14.3021H7.09521V31.9056H12.5963V14.3021ZM21.398 14.3021H15.897V31.9056H21.398V22.6638C21.398 17.4927 27.9994 17.0527 27.9994 22.6638V31.9056H33.5004V20.7934C33.5004 12.1017 23.7085 12.4317 21.398 16.7226V14.3021Z" fill="#EEEEFE"/>
</g>
</g>
</g>
</g>
</g>
<defs>
<linearGradient id="paint0_linear_15_5" x1="20.2981" y1="0" x2="20.2981" y2="39.6078" gradientUnits="userSpaceOnUse">
<stop stop-color="#EA780F"/>
<stop offset="1" stop-color="#F4CB52"/>
</linearGradient>
</defs>
</svg>
