<svg width="32" height="32" viewBox="0 0 32 32" fill="none" xmlns="http://www.w3.org/2000/svg">
<g id="Frame 38">
<rect width="31.6862" height="31.6863" rx="7.04139" fill="black"/>
<path id="Vector" d="M15.8419 5.77932C19.1279 5.77932 19.5387 5.77931 20.8736 5.882C24.2622 5.98469 25.8025 7.62768 25.9052 10.9137C26.0079 12.2486 26.0079 12.5566 26.0079 15.8426C26.0079 19.1286 26.0079 19.5394 25.9052 20.7716C25.8025 24.0576 24.1596 25.7005 20.8736 25.8033C19.5387 25.9059 19.2306 25.9059 15.8419 25.9059C12.556 25.9059 12.1452 25.9059 10.913 25.8033C7.52431 25.7005 5.98401 24.0576 5.88132 20.7716C5.77864 19.4367 5.77864 19.1286 5.77864 15.8426C5.77864 12.5566 5.77864 12.1459 5.88132 10.9137C5.98401 7.62768 7.627 5.98469 10.913 5.882C12.1452 5.77931 12.556 5.77932 15.8419 5.77932ZM15.8419 3.5202C12.4532 3.5202 12.0425 3.5202 10.8103 3.62289C6.29207 3.82826 3.82759 6.29275 3.62222 10.811C3.51953 12.0432 3.51953 12.4539 3.51953 15.8426C3.51953 19.2313 3.51953 19.642 3.62222 20.8743C3.82759 25.3925 6.29207 27.857 10.8103 28.0624C12.0425 28.1651 12.4532 28.1651 15.8419 28.1651C19.2306 28.1651 19.6413 28.1651 20.8736 28.0624C25.3918 27.857 27.8563 25.3925 28.0616 20.8743C28.1644 19.642 28.1644 19.2313 28.1644 15.8426C28.1644 12.4539 28.1644 12.0432 28.0616 10.811C27.8563 6.29275 25.3918 3.82826 20.8736 3.62289C19.6413 3.5202 19.2306 3.5202 15.8419 3.5202ZM15.8419 9.47606C12.3506 9.47606 9.47538 12.3513 9.47538 15.8426C9.47538 19.334 12.3506 22.2092 15.8419 22.2092C19.3333 22.2092 22.2085 19.334 22.2085 15.8426C22.2085 12.3513 19.3333 9.47606 15.8419 9.47606ZM15.8419 19.9501C13.5828 19.9501 11.7345 18.1018 11.7345 15.8426C11.7345 13.5835 13.5828 11.7352 15.8419 11.7352C18.1011 11.7352 19.9494 13.5835 19.9494 15.8426C19.9494 18.1018 18.1011 19.9501 15.8419 19.9501ZM22.4139 7.83305C21.5924 7.83305 20.9763 8.44917 20.9763 9.27069C20.9763 10.0922 21.5924 10.7083 22.4139 10.7083C23.2354 10.7083 23.8515 10.0922 23.8515 9.27069C23.8515 8.44917 23.2354 7.83305 22.4139 7.83305Z" fill="#EEEEFE"/>
</g>
</svg>
