<svg width="41" height="40" viewBox="0 0 41 40" fill="none" xmlns="http://www.w3.org/2000/svg">
<rect width="41" height="40" fill="#F5F5F5"/>
<g id="&#208;&#159;&#208;&#190;&#208;&#180;&#208;&#191;&#208;&#184;&#209;&#129;&#208;&#186;&#208;&#176;" clip-path="url(#clip0_15_5)">
<rect width="1512" height="2282" transform="translate(-1227 -2094)" fill="url(#paint0_linear_15_5)"/>
<g id="&#209;&#132;&#208;&#190;&#208;&#189;">
<g id="&#209;&#128;&#208;&#176;&#208;&#188;&#208;&#186;&#208;&#176; &#209;&#131;&#208;&#183;&#208;&#186;&#208;&#176;&#209;&#143;" filter="url(#filter0_f_15_5)">
<path fill-rule="evenodd" clip-rule="evenodd" d="M-1199.5 -2077.13L-1362.5 -790.127L363.5 -824L237.5 -2077.13H-1199.5ZM-1149.5 -2027.13L-1823 695.873L497.5 506.873L751.5 -790.127L705 -2027.13H-1149.5Z" fill="black" fill-opacity="0.9"/>
</g>
</g>
<g id="Footer">
<g id="Social Networks">
<g id="Frame 35">
<rect x="0.679199" width="39.6078" height="39.6078" rx="8.80174" fill="url(#paint1_linear_15_5)"/>
<path id="Vector" d="M20.4831 7.22428C24.5906 7.22428 25.104 7.22428 26.7727 7.35264C31.0085 7.481 32.9339 9.53473 33.0622 13.6422C33.1906 15.3108 33.1906 15.6959 33.1906 19.8034C33.1906 23.9109 33.1906 24.4244 33.0622 25.9646C32.9339 30.0721 30.8802 32.1258 26.7727 32.2542C25.104 32.3825 24.7189 32.3825 20.4831 32.3825C16.3756 32.3825 15.8622 32.3825 14.3219 32.2542C10.0861 32.1258 8.16069 30.0721 8.03232 25.9646C7.90397 24.296 7.90397 23.9109 7.90397 19.8034C7.90397 15.6959 7.90397 15.1825 8.03232 13.6422C8.16069 9.53473 10.2144 7.481 14.3219 7.35264C15.8622 7.22428 16.3756 7.22428 20.4831 7.22428ZM20.4831 4.40039C16.2472 4.40039 15.7338 4.40039 14.1935 4.52875C8.54576 4.78547 5.46515 7.86607 5.20844 13.5138C5.08008 15.0541 5.08008 15.5676 5.08008 19.8034C5.08008 24.0392 5.08008 24.5527 5.20844 26.093C5.46515 31.7408 8.54576 34.8214 14.1935 35.0781C15.7338 35.2065 16.2472 35.2065 20.4831 35.2065C24.7189 35.2065 25.2324 35.2065 26.7727 35.0781C32.4205 34.8214 35.5011 31.7408 35.7578 26.093C35.8862 24.5527 35.8862 24.0392 35.8862 19.8034C35.8862 15.5676 35.8862 15.0541 35.7578 13.5138C35.5011 7.86607 32.4205 4.78547 26.7727 4.52875C25.2324 4.40039 24.7189 4.40039 20.4831 4.40039ZM20.4831 11.8452C16.1189 11.8452 12.5249 15.4392 12.5249 19.8034C12.5249 24.1676 16.1189 27.7617 20.4831 27.7617C24.8473 27.7617 28.4413 24.1676 28.4413 19.8034C28.4413 15.4392 24.8473 11.8452 20.4831 11.8452ZM20.4831 24.9378C17.6592 24.9378 15.3488 22.6273 15.3488 19.8034C15.3488 16.9795 17.6592 14.6691 20.4831 14.6691C23.307 14.6691 25.6175 16.9795 25.6175 19.8034C25.6175 22.6273 23.307 24.9378 20.4831 24.9378ZM28.6981 9.79145C27.6712 9.79145 26.901 10.5616 26.901 11.5885C26.901 12.6154 27.6712 13.3855 28.6981 13.3855C29.7249 13.3855 30.4951 12.6154 30.4951 11.5885C30.4951 10.5616 29.7249 9.79145 28.6981 9.79145Z" fill="#EEEEFE"/>
</g>
</g>
</g>
</g>
<defs>
<filter id="filter0_f_15_5" x="-2023" y="-2277.13" width="2974.5" height="3173" filterUnits="userSpaceOnUse" color-interpolation-filters="sRGB">
<feFlood flood-opacity="0" result="BackgroundImageFix"/>
<feBlend mode="normal" in="SourceGraphic" in2="BackgroundImageFix" result="shape"/>
<feGaussianBlur stdDeviation="100" result="effect1_foregroundBlur_15_5"/>
</filter>
<linearGradient id="paint0_linear_15_5" x1="756" y1="0" x2="756" y2="2282" gradientUnits="userSpaceOnUse">
<stop stop-color="#250D3C"/>
<stop offset="0.911458"/>
</linearGradient>
<linearGradient id="paint1_linear_15_5" x1="20.4831" y1="0" x2="20.4831" y2="39.6078" gradientUnits="userSpaceOnUse">
<stop stop-color="#EA780F" stop-opacity="0.87"/>
<stop offset="1" stop-color="#F4CB52"/>
</linearGradient>
<clipPath id="clip0_15_5">
<rect width="1512" height="2282" fill="white" transform="translate(-1227 -2094)"/>
</clipPath>
</defs>
</svg>
