<svg width="148" height="39" viewBox="0 0 148 39" fill="none" xmlns="http://www.w3.org/2000/svg">
<path d="M125.224 4.19241C130.89 4.12342 131.188 6.22861 129.364 11.7374C127 11.2016 126.927 11.9778 127.172 13.6846C128.163 15.5291 131.069 15.6317 132.044 15.6317C133.018 15.6317 133.174 13.6077 131.557 12.4676C132.825 4.54825 131.92 1.63999 125.224 1.27175C116.338 3.36313 114.932 6.76047 114.993 14.4147C115.946 18.1555 122.275 20.5575 128.147 21.7164C134.019 22.8752 125.689 27.635 124.98 27.5577C124.271 27.4803 120.983 29.3682 118.647 24.8804C120.507 24.7981 120.678 24.2565 120.352 22.9333C118.456 21.4078 117.233 21.405 114.993 21.7164C113.736 23.3306 116.698 24.1502 116.211 24.8804C115.724 25.6106 116.54 26.9126 117.673 29.018C119.641 31.6286 131.273 31.032 132.531 27.3143C133.789 23.5966 131.557 19.2825 129.364 18.7957C127.172 18.3089 118.591 17.6075 118.16 13.1978C118.208 9.25991 116.877 5.21608 125.224 4.19241Z" fill="white" stroke="white" stroke-width="0.49"/>
<path d="M70.1755 30.9649C68.539 31.6727 64.0861 2.73185 64.3297 2.00169C64.5733 1.27154 65.8695 0.590944 67.009 2.00169C69.2738 17.0717 69.7072 18.0699 70.6626 21.4727C72.0035 15.2601 70.9139 21.0497 74.8034 2.00169C75.9475 0.530924 76.3009 1.25587 77.2392 2.00169C78.1775 2.74752 72.0947 31.6567 70.1755 30.9649Z" fill="white" stroke="white" stroke-width="0.49"/>
<path d="M38.9978 2.00195C37.9871 0.84572 36.7193 0.774361 36.0749 2.00195C36.2038 12.9967 35.6687 19.7972 36.562 29.9916C37.7002 31.2399 38.7542 29.9916 39.2414 29.9916C39.7285 29.9916 39.2414 15.1449 39.2414 15.1449C38.775 9.3922 39.4376 7.87995 42.4078 8.08666C44.4165 8.25649 45.205 9.6474 45.8179 15.1449C45.859 20.6213 45.8095 23.8699 45.5743 29.9916C46.6204 31.2099 47.2076 31.1139 48.2537 29.9916C48.3523 24.4383 48.4251 22.6834 48.4972 15.1449C47.5462 9.93593 47.9507 6.09188 42.6514 5.166C40.8032 5.17944 40.0322 5.37898 39.2414 6.13956L38.9978 2.00195Z" fill="white" stroke="white" stroke-width="0.49"/>
<path d="M23.6525 8.81679C23.4194 9.89312 22.9476 10.2107 21.2168 10.0337C19.2988 5.87553 17.4919 4.35838 12.2045 3.94902C5.54581 5.01229 3.76927 7.1621 3.67933 13.4412C3.88407 18.9653 5.29561 21.3475 12.2045 23.1767C16.3711 23.0015 18.383 22.2379 20.7296 18.3089C22.5833 17.7461 22.9352 18.2769 22.9218 20.0126C20.1729 24.7353 17.7549 25.8892 12.2045 25.854C5.29177 24.5661 2.18931 22.7587 1 13.4412C1.69525 6.56673 2.7294 3.08352 12.2045 1.27175C18.5324 1.29041 20.739 3.41527 23.6525 8.81679Z" fill="white" stroke="white" stroke-width="0.49"/>
<path d="M30.9599 8.33004C28.9032 8.02487 27.845 8.04162 26.0884 8.33004C25.3886 9.04083 25.3262 9.55237 26.0884 10.7639C26.455 10.8556 26.9129 10.8714 28.2805 10.7639C28.2459 10.4194 28.275 20.0407 28.2805 27.8011C27.2205 27.4343 26.7491 27.4292 26.0884 27.8011C25.6958 28.7516 25.6047 29.2847 26.0884 30.235C29.4921 30.539 30.9034 30.6272 33.8828 30.235C34.0576 29.2017 34.2091 28.5972 33.8828 27.8011C32.7553 27.4366 32.2283 27.3949 31.447 27.5577C31.4043 18.2597 31.707 9.08492 30.9599 8.33004Z" fill="white" stroke="white" stroke-width="1.80699"/>
<ellipse cx="29.2546" cy="3.70563" rx="2.43576" ry="2.43388" fill="white"/>
<path fill-rule="evenodd" clip-rule="evenodd" d="M60.9334 10.7183C61.1247 10.7222 61.2678 10.7252 61.3485 10.7252C62.0792 10.7252 61.3485 6.10084 61.3485 6.10084C60.2863 2.72039 59.3465 1.36945 56.2334 1.23307C52.3203 1.6434 50.8753 3.42633 50.6311 11.4554C51.1943 29.6797 53.0613 30.9028 56.7205 31.1698C60.5187 30.9501 61.2399 29.0841 61.5921 24.5984C61.5921 24.5984 62.0792 16.8099 61.5921 16.5665C61.5458 16.5434 61.4962 16.517 61.4433 16.4889C60.9391 16.2207 60.1389 15.7951 59.1563 16.5665C59.1583 17.0735 59.1614 17.567 59.1644 18.0464C59.2027 24.0841 59.2268 27.8933 56.7205 28.2492C55.1139 28.3532 54.2331 28.2128 53.7976 16.5665C53.7201 13.0598 53.7976 12.4289 54.2848 11.4554C54.7181 10.5893 59.392 10.6863 60.9334 10.7183ZM58.738 8.29212C58.5435 5.48907 58.3335 4.12748 56.3023 3.91112C53.9765 3.86325 53.7609 5.99384 53.6172 7.41316C53.5985 7.59876 53.5809 7.77221 53.56 7.92702C53.3795 9.2657 57.2767 9.50908 58.738 8.29212Z" fill="white"/>
<path d="M60.9334 10.7183L60.9384 10.4733L60.9384 10.4733L60.9334 10.7183ZM61.3485 6.10084L61.5905 6.0626L61.5876 6.04469L61.5822 6.0274L61.3485 6.10084ZM56.2334 1.23307L56.2441 0.988309L56.2259 0.987513L56.2078 0.98941L56.2334 1.23307ZM50.6311 11.4554L50.3863 11.4479L50.386 11.4554L50.3863 11.4629L50.6311 11.4554ZM56.7205 31.1698L56.7027 31.4142L56.7187 31.4154L56.7347 31.4144L56.7205 31.1698ZM61.5921 24.5984L61.8363 24.6175L61.8366 24.6136L61.5921 24.5984ZM61.5921 16.5665L61.7016 16.3474L61.7016 16.3474L61.5921 16.5665ZM61.4433 16.4889L61.3283 16.7052L61.3283 16.7052L61.4433 16.4889ZM59.1563 16.5665L59.005 16.3738L58.9108 16.4478L58.9113 16.5675L59.1563 16.5665ZM59.1644 18.0464L59.4094 18.0449L59.4094 18.0449L59.1644 18.0464ZM56.7205 28.2492L56.7364 28.4937L56.7457 28.4931L56.755 28.4917L56.7205 28.2492ZM53.7976 16.5665L53.5527 16.572L53.5528 16.5757L53.7976 16.5665ZM54.2848 11.4554L54.0657 11.3457L54.0657 11.3457L54.2848 11.4554ZM56.3023 3.91112L56.3282 3.66749L56.3178 3.66638L56.3073 3.66617L56.3023 3.91112ZM58.738 8.29212L58.8948 8.48038L58.9911 8.40018L58.9824 8.27515L58.738 8.29212ZM53.6172 7.41316L53.3735 7.38849L53.3735 7.38849L53.6172 7.41316ZM53.56 7.92702L53.8028 7.95977L53.8028 7.95977L53.56 7.92702ZM61.3485 10.4802C61.271 10.4802 61.1314 10.4773 60.9384 10.4733L60.9283 10.9632C61.1181 10.9672 61.2645 10.9702 61.3485 10.9702V10.4802ZM61.3485 6.10084C61.1065 6.13908 61.1065 6.13908 61.1065 6.1391C61.1065 6.13913 61.1065 6.13916 61.1065 6.13922C61.1065 6.13933 61.1066 6.13952 61.1066 6.13978C61.1067 6.14029 61.1068 6.14107 61.107 6.14214C61.1073 6.14426 61.1078 6.14747 61.1085 6.15174C61.1098 6.16029 61.1118 6.17305 61.1143 6.18977C61.1194 6.2232 61.1268 6.2724 61.136 6.33511C61.1545 6.46056 61.18 6.63999 61.2083 6.85538C61.2651 7.28659 61.333 7.86006 61.3783 8.43233C61.4237 9.00756 61.4452 9.56984 61.4125 9.98336C61.396 10.193 61.3668 10.3445 61.3304 10.4365C61.2889 10.5415 61.2794 10.4802 61.3485 10.4802V10.9702C61.6002 10.9702 61.7277 10.7644 61.7861 10.6165C61.8497 10.4557 61.8833 10.2458 61.901 10.022C61.9368 9.56841 61.9126 8.97459 61.8667 8.39373C61.8206 7.8099 61.7515 7.22728 61.6941 6.79141C61.6654 6.57327 61.6396 6.39142 61.6209 6.26398C61.6115 6.20024 61.6039 6.15009 61.5987 6.11578C61.5961 6.09862 61.594 6.08543 61.5926 6.07647C61.5919 6.07199 61.5914 6.06857 61.591 6.06625C61.5909 6.06509 61.5907 6.0642 61.5906 6.06359C61.5906 6.06329 61.5905 6.06305 61.5905 6.06288C61.5905 6.0628 61.5905 6.06273 61.5905 6.06269C61.5905 6.06264 61.5905 6.0626 61.3485 6.10084ZM56.2227 1.47784C57.7437 1.54447 58.6869 1.90481 59.3845 2.62134C60.0967 3.35279 60.5836 4.48377 61.1147 6.17428L61.5822 6.0274C61.0512 4.33746 60.5371 3.10274 59.7356 2.27951C58.9195 1.44136 57.8362 1.05805 56.2441 0.988309L56.2227 1.47784ZM50.876 11.4628C50.9982 7.44671 51.4218 5.05223 52.2677 3.61123C53.0922 2.20663 54.3389 1.67807 56.2589 1.47674L56.2078 0.98941C54.2148 1.1984 52.7824 1.76647 51.8451 3.36318C50.9292 4.92349 50.5083 7.435 50.3863 11.4479L50.876 11.4628ZM56.7384 30.9255C55.83 30.8592 55.079 30.7351 54.4345 30.3319C53.7957 29.9322 53.2292 29.2367 52.7438 27.9596C51.7662 25.3869 51.1578 20.5663 50.876 11.4478L50.3863 11.4629C50.6677 20.5688 51.2743 25.4719 52.2858 28.1336C52.795 29.4737 53.4166 30.273 54.1746 30.7473C54.9269 31.218 55.7815 31.347 56.7027 31.4142L56.7384 30.9255ZM61.3478 24.5792C61.1712 26.8288 60.9036 28.3539 60.2444 29.3485C59.6052 30.3127 58.5664 30.8177 56.7064 30.9252L56.7347 31.4144C58.6729 31.3023 59.8937 30.7644 60.6528 29.6192C61.3917 28.5044 61.6608 26.8537 61.8363 24.6175L61.3478 24.5792ZM61.4826 16.7857C61.4601 16.7745 61.4455 16.7615 61.4376 16.7532C61.4297 16.745 61.4261 16.7392 61.4259 16.7387C61.4255 16.7381 61.4269 16.7403 61.4296 16.7467C61.4323 16.7529 61.4357 16.7616 61.4396 16.7735C61.4562 16.8237 61.4735 16.9033 61.4893 17.0157C61.5207 17.2385 61.5413 17.552 61.5527 17.9315C61.5753 18.6883 61.5603 19.6787 61.5299 20.6662C61.4995 21.6526 61.4539 22.6319 61.4159 23.3649C61.3969 23.7313 61.3798 24.036 61.3674 24.249C61.3613 24.3555 61.3563 24.4391 61.3529 24.4961C61.3511 24.5245 61.3498 24.5463 61.3489 24.561C61.3484 24.5683 61.3481 24.5738 61.3479 24.5775C61.3478 24.5794 61.3477 24.5808 61.3476 24.5817C61.3476 24.5822 61.3476 24.5825 61.3476 24.5827C61.3475 24.5828 61.3475 24.5829 61.3475 24.583C61.3475 24.583 61.3475 24.5831 61.5921 24.5984C61.8366 24.6136 61.8366 24.6136 61.8366 24.6135C61.8366 24.6135 61.8366 24.6134 61.8366 24.6133C61.8366 24.613 61.8366 24.6126 61.8367 24.6122C61.8367 24.6112 61.8368 24.6098 61.8369 24.6079C61.8372 24.6041 61.8375 24.5985 61.838 24.591C61.8389 24.5762 61.8402 24.5542 61.842 24.5256C61.8454 24.4683 61.8504 24.3843 61.8566 24.2774C61.869 24.0635 61.8862 23.7578 61.9052 23.3903C61.9433 22.6553 61.9891 21.6723 62.0196 20.6813C62.0501 19.6912 62.0655 18.6889 62.0425 17.9169C62.031 17.532 62.0097 17.1971 61.9745 16.9473C61.9571 16.8235 61.9349 16.7109 61.905 16.6202C61.8901 16.575 61.8707 16.527 61.844 16.4833C61.8189 16.4422 61.7747 16.3839 61.7016 16.3474L61.4826 16.7857ZM61.3283 16.7052C61.3805 16.733 61.433 16.7609 61.4826 16.7857L61.7016 16.3474C61.6586 16.3259 61.6119 16.3011 61.5584 16.2726L61.3283 16.7052ZM59.3076 16.7592C59.7502 16.4118 60.1321 16.3453 60.4518 16.3813C60.7851 16.4189 61.0727 16.5693 61.3283 16.7052L61.5584 16.2726C61.3098 16.1404 60.9451 15.9438 60.5067 15.8944C60.0545 15.8435 59.545 15.9499 59.005 16.3738L59.3076 16.7592ZM59.4094 18.0449C59.4064 17.5654 59.4032 17.0722 59.4013 16.5656L58.9113 16.5675C58.9133 17.0748 58.9164 17.5686 58.9194 18.048L59.4094 18.0449ZM56.755 28.4917C57.4519 28.3928 57.9794 28.0487 58.3661 27.494C58.7456 26.9497 58.9843 26.2105 59.1381 25.3202C59.4452 23.542 59.4285 21.0539 59.4094 18.0449L58.9194 18.048C58.9386 21.0767 58.9531 23.512 58.6552 25.2368C58.5065 26.0979 58.2838 26.7552 57.9641 27.2138C57.6516 27.6621 57.2423 27.9276 56.6861 28.0066L56.755 28.4917ZM53.5528 16.5757C53.7702 22.3912 54.099 25.3733 54.5867 26.8893C54.8316 27.6504 55.1317 28.0925 55.5256 28.318C55.9135 28.5401 56.3428 28.5191 56.7364 28.4937L56.7047 28.0047C56.295 28.0312 56.0117 28.0317 55.769 27.8928C55.5322 27.7572 55.2837 27.4559 55.0531 26.7392C54.5899 25.2994 54.2605 22.3882 54.0425 16.5574L53.5528 16.5757ZM54.0657 11.3457C53.5468 12.3827 53.4754 13.0768 53.5527 16.572L54.0426 16.5611C53.9647 13.0428 54.0485 12.4752 54.5039 11.565L54.0657 11.3457ZM60.9384 10.4733C60.1687 10.4574 58.6058 10.4248 57.1797 10.5055C56.4678 10.5457 55.78 10.6146 55.2383 10.7308C54.968 10.7888 54.724 10.8605 54.5283 10.9516C54.3397 11.0394 54.1573 11.1626 54.0657 11.3457L54.5039 11.565C54.5206 11.5316 54.5791 11.4685 54.735 11.3959C54.8839 11.3266 55.0881 11.2641 55.3411 11.2099C55.8457 11.1017 56.504 11.0345 57.2074 10.9947C58.6119 10.9153 60.1567 10.9472 60.9283 10.9632L60.9384 10.4733ZM56.2763 4.15474C56.7586 4.20612 57.1119 4.32336 57.3782 4.49773C57.6419 4.67033 57.8369 4.90966 57.9864 5.23413C58.2945 5.90289 58.3954 6.89423 58.4936 8.30908L58.9824 8.27515C58.8861 6.88696 58.7847 5.79598 58.4314 5.02909C58.2502 4.63575 57.9997 4.31891 57.6466 4.08777C57.2962 3.85839 56.8615 3.7243 56.3282 3.66749L56.2763 4.15474ZM53.861 7.43782C53.9338 6.71798 54.0218 5.87947 54.3593 5.22411C54.525 4.90239 54.7468 4.63396 55.0502 4.44715C55.353 4.26071 55.7545 4.14489 56.2972 4.15606L56.3073 3.66617C55.6872 3.65341 55.1895 3.78597 54.7933 4.02989C54.3977 4.27347 54.1205 4.61742 53.9236 4.99977C53.536 5.75258 53.4443 6.68902 53.3735 7.38849L53.861 7.43782ZM53.8028 7.95977C53.8244 7.80013 53.8423 7.62236 53.861 7.43782L53.3735 7.38849C53.3546 7.57517 53.3375 7.74429 53.3172 7.89428L53.8028 7.95977ZM58.5812 8.10385C58.2566 8.37415 57.7803 8.57501 57.2334 8.69767C56.6896 8.81963 56.0948 8.86003 55.5497 8.82348C55.0008 8.78668 54.5228 8.67324 54.202 8.50342C53.8788 8.33232 53.7778 8.14534 53.8028 7.95977L53.3172 7.89428C53.252 8.37805 53.5704 8.72349 53.9728 8.93649C54.3776 9.15078 54.9315 9.27313 55.5169 9.31238C56.1062 9.3519 56.7484 9.30862 57.3407 9.17579C57.9299 9.04364 58.4887 8.81856 58.8948 8.48038L58.5812 8.10385Z" fill="white"/>
<path fill-rule="evenodd" clip-rule="evenodd" d="M95.9944 29.7482C95.121 31.0214 94.4643 30.9545 93.0715 29.7482C92.6041 28.8192 91.5225 4.95846 93.0715 2.2453C94.6204 -0.467863 112.293 0.877219 112.314 10.0337C112.365 14.4655 110.126 16.913 103.302 21.2296C105.579 28.8483 112.558 35.8329 114.506 35.3461C116.455 34.8594 116.455 37.78 114.506 37.78C112.558 37.78 109.266 37.4673 105.007 32.6688C101.822 27.6873 101.331 25.6558 100.538 22.3727C100.486 22.1596 100.434 21.9412 100.379 21.7164C97.5377 21.5029 96.1389 21.4856 95.9944 22.6899V29.7482ZM97.889 16.205C104.978 15.9634 108.432 15.555 109.158 10.4575C109.485 4.60283 104.129 3.87084 100.56 3.38322C100.094 3.31945 99.6578 3.25986 99.2691 3.19354C95.9077 2.62009 94.9482 12.4158 97.889 16.205Z" fill="white"/>
<path d="M93.0715 29.7482L92.8526 29.8583L92.8744 29.9016L92.9111 29.9334L93.0715 29.7482ZM95.9944 29.7482L96.1964 29.8868L96.2394 29.8241V29.7482H95.9944ZM93.0715 2.2453L93.2842 2.36677L93.2842 2.36677L93.0715 2.2453ZM112.314 10.0337L112.069 10.0343L112.069 10.0365L112.314 10.0337ZM103.302 21.2296L103.171 21.0225L103.014 21.1218L103.067 21.2997L103.302 21.2296ZM105.007 32.6688L104.8 32.8008L104.811 32.8171L104.823 32.8315L105.007 32.6688ZM100.538 22.3727L100.3 22.4303L100.3 22.4303L100.538 22.3727ZM100.379 21.7164L100.617 21.6583L100.575 21.4854L100.397 21.472L100.379 21.7164ZM95.9944 22.6899L95.7511 22.6607L95.7494 22.6753V22.6899H95.9944ZM109.158 10.4575L109.401 10.492L109.402 10.4816L109.403 10.4711L109.158 10.4575ZM97.889 16.205L97.6955 16.3552L97.7723 16.4541L97.8974 16.4498L97.889 16.205ZM100.56 3.38322L100.594 3.14048L100.594 3.14048L100.56 3.38322ZM99.2691 3.19354L99.3103 2.95203L99.3103 2.95203L99.2691 3.19354ZM92.9111 29.9334C93.2638 30.2389 93.5797 30.481 93.8707 30.6485C94.1616 30.8159 94.4428 30.9177 94.7231 30.9229C95.3047 30.9338 95.7531 30.533 96.1964 29.8868L95.7923 29.6096C95.3622 30.2366 95.0455 30.4389 94.7323 30.433C94.5651 30.4299 94.3664 30.3684 94.1151 30.2238C93.864 30.0792 93.5755 29.8606 93.2319 29.563L92.9111 29.9334ZM92.8587 2.12383C92.7445 2.32385 92.6515 2.60292 92.5727 2.9344C92.493 3.2697 92.4241 3.67473 92.3646 4.13662C92.2455 5.06056 92.1622 6.22673 92.1075 7.54645C91.9981 10.1867 92.0027 13.4584 92.0704 16.671C92.1381 19.8841 92.2688 23.0417 92.4119 25.455C92.4834 26.6614 92.5582 27.6835 92.6299 28.4343C92.6657 28.8093 92.7009 29.1192 92.735 29.3516C92.752 29.4675 92.7692 29.5671 92.7865 29.6471C92.8023 29.7201 92.8227 29.7988 92.8526 29.8583L93.2903 29.6381C93.291 29.6395 93.281 29.6153 93.2654 29.5433C93.2513 29.4784 93.236 29.3909 93.2198 29.2805C93.1875 29.0599 93.1531 28.7593 93.1176 28.3877C93.0468 27.6452 92.9724 26.6296 92.901 25.426C92.7583 23.0193 92.6278 19.868 92.5603 16.6606C92.4927 13.4528 92.4882 10.1925 92.5971 7.56674C92.6515 6.25347 92.7341 5.10313 92.8506 4.19924C92.9088 3.74722 92.9751 3.3605 93.0494 3.04776C93.1247 2.73118 93.2048 2.50589 93.2842 2.36677L92.8587 2.12383ZM112.559 10.0332C112.553 7.65387 111.397 5.78844 109.671 4.38237C107.949 2.98041 105.652 2.02653 103.324 1.45056C100.995 0.874164 98.6151 0.671488 96.7139 0.785429C95.764 0.842361 94.9243 0.978854 94.2665 1.19239C93.6208 1.40199 93.0995 1.70206 92.8587 2.12383L93.2842 2.36677C93.4307 2.11024 93.8005 1.85885 94.4178 1.65845C95.023 1.462 95.8183 1.32999 96.7432 1.27455C98.5919 1.16376 100.922 1.36092 103.207 1.92621C105.493 2.49193 107.715 3.42159 109.361 4.76232C111.003 6.09893 112.064 7.83533 112.069 10.0343L112.559 10.0332ZM103.433 21.4366C106.845 19.2779 109.141 17.5691 110.575 15.8307C112.021 14.0768 112.585 12.2994 112.559 10.0309L112.069 10.0365C112.094 12.1998 111.563 13.862 110.197 15.519C108.818 17.1914 106.582 18.8647 103.171 21.0225L103.433 21.4366ZM114.447 35.1084C114.28 35.1501 114.018 35.118 113.653 34.9657C113.295 34.8164 112.871 34.5655 112.398 34.2194C111.454 33.528 110.341 32.4766 109.213 31.1675C106.956 28.5483 104.663 24.9273 103.536 21.1594L103.067 21.2997C104.218 25.1506 106.553 28.8312 108.842 31.4873C109.986 32.8158 111.126 33.8955 112.109 34.6148C112.6 34.9742 113.059 35.2486 113.464 35.4179C113.863 35.5841 114.245 35.6638 114.566 35.5838L114.447 35.1084ZM114.506 38.025C115.636 38.025 116.213 37.1642 116.213 36.3805C116.213 35.99 116.07 35.5953 115.76 35.3338C115.444 35.0669 114.992 34.9721 114.447 35.1084L114.566 35.5838C114.994 35.4768 115.274 35.5645 115.444 35.7084C115.621 35.8576 115.723 36.1018 115.723 36.3805C115.723 36.9355 115.325 37.535 114.506 37.535V38.025ZM104.823 32.8315C106.972 35.2524 108.889 36.5546 110.527 37.2494C112.168 37.945 113.514 38.025 114.506 38.025V37.535C113.55 37.535 112.276 37.4586 110.719 36.7983C109.159 36.1371 107.3 34.8837 105.19 32.5062L104.823 32.8315ZM100.3 22.4303C100.696 24.0705 101.021 25.4156 101.648 26.9753C102.276 28.5352 103.203 30.3025 104.8 32.8008L105.213 32.5369C103.626 30.0537 102.715 28.3145 102.103 26.7925C101.491 25.2703 101.173 23.9581 100.776 22.3152L100.3 22.4303ZM100.141 21.7745C100.196 21.999 100.248 22.2171 100.3 22.4303L100.776 22.3152C100.725 22.1021 100.672 21.8834 100.617 21.6583L100.141 21.7745ZM96.2376 22.7191C96.2676 22.4693 96.3578 22.3054 96.4984 22.1874C96.6468 22.0629 96.8749 21.9695 97.2154 21.9132C97.9031 21.7995 98.9305 21.8532 100.36 21.9607L100.397 21.472C98.986 21.366 97.8935 21.3044 97.1354 21.4298C96.753 21.493 96.4268 21.6078 96.1834 21.8121C95.9323 22.0228 95.7934 22.3084 95.7511 22.6607L96.2376 22.7191ZM96.2394 29.7482V22.6899H95.7494V29.7482H96.2394ZM108.916 10.4229C108.738 11.6719 108.396 12.6127 107.888 13.3306C107.382 14.0459 106.701 14.556 105.815 14.9262C104.025 15.6748 101.439 15.8389 97.8807 15.9601L97.8974 16.4498C101.429 16.3295 104.114 16.1685 106.004 15.3782C106.959 14.9789 107.72 14.4161 108.288 13.6135C108.854 12.8136 109.216 11.7918 109.401 10.492L108.916 10.4229ZM100.527 3.62596C102.322 3.87116 104.504 4.17247 106.2 5.12153C107.043 5.59279 107.756 6.21947 108.241 7.07194C108.726 7.9238 108.993 9.01883 108.913 10.4438L109.403 10.4711C109.487 8.96878 109.206 7.77682 108.667 6.82958C108.129 5.88295 107.341 5.19841 106.44 4.6939C104.648 3.6914 102.368 3.3829 100.594 3.14048L100.527 3.62596ZM99.2279 3.43506C99.6214 3.50219 100.062 3.56234 100.527 3.62596L100.594 3.14048C100.126 3.07656 99.6942 3.01754 99.3103 2.95203L99.2279 3.43506ZM98.0826 16.0547C97.3799 15.1494 96.8992 13.8684 96.6321 12.4475C96.3656 11.0297 96.3155 9.49164 96.4594 8.08829C96.6038 6.6811 96.9411 5.4298 97.4341 4.57411C97.9284 3.71614 98.5356 3.31695 99.2279 3.43506L99.3103 2.95203C98.3219 2.78341 97.5486 3.39365 97.0095 4.32951C96.4691 5.26765 96.1201 6.59459 95.972 8.03829C95.8235 9.48584 95.8748 11.0713 96.1505 12.538C96.4256 14.0016 96.9277 15.366 97.6955 16.3552L98.0826 16.0547Z" fill="white"/>
<path fill-rule="evenodd" clip-rule="evenodd" d="M89.2406 10.7183C89.4319 10.7223 89.575 10.7252 89.6557 10.7252C90.3864 10.7252 89.6557 6.10084 89.6557 6.10084C88.5935 2.72039 87.6537 1.36945 84.5406 1.23308C80.6275 1.6434 79.1825 3.42633 78.9384 11.4554C79.5015 29.6797 81.3685 30.9028 85.0277 31.1698C88.8259 30.9501 89.5471 29.0841 89.8993 24.5984C89.8993 24.5984 90.3864 16.8099 89.8993 16.5665C89.853 16.5434 89.8034 16.5171 89.7505 16.4889C89.2463 16.2207 88.4461 15.7951 87.4635 16.5665C87.4655 17.0735 87.4686 17.567 87.4716 18.0464C87.5099 24.0841 87.534 27.8933 85.0277 28.2492C83.4211 28.3532 82.5403 28.2129 82.1048 16.5665C82.0273 13.0598 82.1048 12.4289 82.592 11.4554C83.0253 10.5893 87.6992 10.6863 89.2406 10.7183ZM87.0452 8.29212C86.8507 5.48908 86.6407 4.12749 84.6095 3.91112C82.2837 3.86325 82.0681 5.99385 81.9244 7.41316C81.9057 7.59877 81.8881 7.77221 81.8672 7.92703C81.6867 9.2657 85.5839 9.50908 87.0452 8.29212Z" fill="white"/>
<path d="M89.2406 10.7183L89.2456 10.4733L89.2456 10.4733L89.2406 10.7183ZM89.6557 6.10084L89.8977 6.0626L89.8949 6.0447L89.8894 6.0274L89.6557 6.10084ZM84.5406 1.23308L84.5513 0.988313L84.5331 0.987516L84.515 0.989414L84.5406 1.23308ZM78.9384 11.4554L78.6935 11.4479L78.6932 11.4554L78.6935 11.463L78.9384 11.4554ZM85.0277 31.1698L85.0099 31.4142L85.0259 31.4154L85.0419 31.4144L85.0277 31.1698ZM89.8993 24.5984L90.1435 24.6175L90.1438 24.6136L89.8993 24.5984ZM89.8993 16.5665L90.0088 16.3474L90.0088 16.3474L89.8993 16.5665ZM89.7505 16.4889L89.6355 16.7052L89.6355 16.7052L89.7505 16.4889ZM87.4635 16.5665L87.3122 16.3738L87.218 16.4478L87.2185 16.5675L87.4635 16.5665ZM87.4716 18.0464L87.7166 18.0449L87.7166 18.0449L87.4716 18.0464ZM85.0277 28.2492L85.0436 28.4937L85.0529 28.4931L85.0622 28.4917L85.0277 28.2492ZM82.1048 16.5665L81.8599 16.572L81.86 16.5757L82.1048 16.5665ZM82.592 11.4554L82.3729 11.3458L82.3729 11.3458L82.592 11.4554ZM84.6095 3.91112L84.6354 3.6675L84.625 3.66639L84.6145 3.66617L84.6095 3.91112ZM87.0452 8.29212L87.202 8.48039L87.2983 8.40019L87.2896 8.27516L87.0452 8.29212ZM81.9244 7.41316L81.6807 7.38849L81.6807 7.38849L81.9244 7.41316ZM81.8672 7.92703L82.11 7.95977L82.11 7.95977L81.8672 7.92703ZM89.6557 10.4802C89.5782 10.4802 89.4386 10.4773 89.2456 10.4733L89.2355 10.9632C89.4253 10.9672 89.5717 10.9702 89.6557 10.9702V10.4802ZM89.6557 6.10084C89.4137 6.13908 89.4137 6.13908 89.4137 6.1391C89.4137 6.13913 89.4137 6.13916 89.4137 6.13922C89.4137 6.13934 89.4138 6.13952 89.4138 6.13978C89.4139 6.14029 89.414 6.14108 89.4142 6.14214C89.4145 6.14426 89.415 6.14748 89.4157 6.15175C89.417 6.16029 89.419 6.17306 89.4215 6.18977C89.4266 6.2232 89.434 6.2724 89.4433 6.33512C89.4617 6.46056 89.4872 6.64 89.5155 6.85539C89.5723 7.28659 89.6403 7.86007 89.6855 8.43233C89.7309 9.00757 89.7524 9.56984 89.7197 9.98337C89.7032 10.193 89.674 10.3445 89.6376 10.4365C89.5961 10.5415 89.5866 10.4802 89.6557 10.4802V10.9702C89.9074 10.9702 90.0349 10.7644 90.0933 10.6165C90.1569 10.4557 90.1905 10.2458 90.2082 10.022C90.244 9.56841 90.2198 8.97459 90.1739 8.39374C90.1278 7.8099 90.0587 7.22729 90.0013 6.79142C89.9726 6.57328 89.9468 6.39143 89.9281 6.26398C89.9187 6.20025 89.9111 6.15009 89.9059 6.11578C89.9033 6.09863 89.9012 6.08543 89.8998 6.07647C89.8992 6.07199 89.8986 6.06858 89.8983 6.06625C89.8981 6.06509 89.8979 6.0642 89.8978 6.06359C89.8978 6.06329 89.8978 6.06305 89.8977 6.06289C89.8977 6.06281 89.8977 6.06274 89.8977 6.06269C89.8977 6.06264 89.8977 6.0626 89.6557 6.10084ZM84.5299 1.47784C86.0509 1.54447 86.9941 1.90482 87.6917 2.62134C88.4039 3.35279 88.8908 4.48378 89.422 6.17429L89.8894 6.0274C89.3584 4.33746 88.8443 3.10275 88.0428 2.27952C87.2267 1.44137 86.1434 1.05805 84.5513 0.988313L84.5299 1.47784ZM79.1832 11.4628C79.3054 7.44672 79.729 5.05223 80.5749 3.61124C81.3994 2.20664 82.6461 1.67808 84.5661 1.47674L84.515 0.989414C82.522 1.1984 81.0896 1.76647 80.1523 3.36318C79.2364 4.9235 78.8155 7.435 78.6935 11.4479L79.1832 11.4628ZM85.0456 30.9255C84.1372 30.8592 83.3862 30.7351 82.7417 30.3319C82.1029 29.9322 81.5364 29.2367 81.051 27.9596C80.0734 25.3869 79.465 20.5663 79.1832 11.4478L78.6935 11.463C78.9749 20.5688 79.5815 25.472 80.593 28.1336C81.1022 29.4737 81.7238 30.273 82.4818 30.7473C83.2341 31.218 84.0887 31.347 85.0099 31.4142L85.0456 30.9255ZM89.655 24.5792C89.4784 26.8288 89.2108 28.3539 88.5516 29.3485C87.9124 30.3127 86.8736 30.8177 85.0136 30.9252L85.0419 31.4144C86.9801 31.3023 88.2009 30.7644 88.96 29.6192C89.6989 28.5044 89.968 26.8537 90.1435 24.6175L89.655 24.5792ZM89.7898 16.7857C89.7673 16.7745 89.7527 16.7615 89.7448 16.7532C89.7369 16.745 89.7333 16.7392 89.7331 16.7387C89.7327 16.7381 89.7341 16.7404 89.7368 16.7467C89.7395 16.7529 89.7429 16.7616 89.7468 16.7735C89.7634 16.8237 89.7807 16.9033 89.7965 17.0157C89.8279 17.2385 89.8485 17.552 89.8599 17.9315C89.8825 18.6883 89.8675 19.6787 89.8371 20.6662C89.8067 21.6526 89.7611 22.6319 89.7231 23.3649C89.7041 23.7313 89.687 24.036 89.6747 24.249C89.6685 24.3556 89.6635 24.4391 89.6601 24.4961C89.6583 24.5245 89.657 24.5463 89.6561 24.561C89.6557 24.5683 89.6553 24.5738 89.6551 24.5775C89.655 24.5794 89.6549 24.5808 89.6548 24.5817C89.6548 24.5822 89.6548 24.5825 89.6548 24.5827C89.6548 24.5828 89.6547 24.5829 89.6547 24.583C89.6547 24.583 89.6547 24.5831 89.8993 24.5984C90.1438 24.6136 90.1438 24.6136 90.1438 24.6135C90.1438 24.6135 90.1438 24.6134 90.1438 24.6133C90.1438 24.613 90.1438 24.6127 90.1439 24.6122C90.1439 24.6112 90.144 24.6098 90.1441 24.6079C90.1444 24.6041 90.1447 24.5985 90.1452 24.591C90.1461 24.5762 90.1474 24.5542 90.1492 24.5256C90.1526 24.4683 90.1576 24.3843 90.1638 24.2774C90.1762 24.0635 90.1934 23.7578 90.2124 23.3903C90.2505 22.6554 90.2963 21.6723 90.3268 20.6813C90.3573 19.6912 90.3727 18.6889 90.3497 17.9169C90.3382 17.532 90.3169 17.1971 90.2817 16.9473C90.2643 16.8235 90.2421 16.7109 90.2122 16.6202C90.1973 16.575 90.1779 16.527 90.1512 16.4833C90.1261 16.4422 90.082 16.3839 90.0088 16.3474L89.7898 16.7857ZM89.6355 16.7052C89.6877 16.733 89.7402 16.7609 89.7898 16.7857L90.0088 16.3474C89.9659 16.3259 89.9191 16.3011 89.8656 16.2726L89.6355 16.7052ZM87.6148 16.7593C88.0574 16.4118 88.4394 16.3453 88.759 16.3813C89.0923 16.4189 89.3799 16.5693 89.6355 16.7052L89.8656 16.2726C89.617 16.1404 89.2523 15.9438 88.8139 15.8944C88.3617 15.8435 87.8522 15.9499 87.3122 16.3738L87.6148 16.7593ZM87.7166 18.0449C87.7136 17.5654 87.7105 17.0722 87.7085 16.5656L87.2185 16.5675C87.2205 17.0748 87.2236 17.5686 87.2266 18.048L87.7166 18.0449ZM85.0622 28.4917C85.7591 28.3928 86.2866 28.0487 86.6733 27.494C87.0528 26.9497 87.2915 26.2105 87.4453 25.3202C87.7524 23.542 87.7357 21.0539 87.7166 18.0449L87.2266 18.048C87.2458 21.0767 87.2603 23.512 86.9624 25.2368C86.8137 26.0979 86.591 26.7552 86.2713 27.2138C85.9588 27.6621 85.5495 27.9276 84.9933 28.0066L85.0622 28.4917ZM81.86 16.5757C82.0774 22.3912 82.4062 25.3733 82.8939 26.8893C83.1388 27.6504 83.4389 28.0926 83.8328 28.318C84.2207 28.5401 84.65 28.5191 85.0436 28.4937L85.0119 28.0047C84.6022 28.0312 84.3189 28.0317 84.0762 27.8928C83.8394 27.7572 83.5909 27.4559 83.3603 26.7392C82.8971 25.2994 82.5677 22.3882 82.3497 16.5574L81.86 16.5757ZM82.3729 11.3458C81.854 12.3827 81.7826 13.0768 81.8599 16.572L82.3498 16.5611C82.2719 13.0428 82.3557 12.4752 82.8111 11.565L82.3729 11.3458ZM89.2456 10.4733C88.4759 10.4574 86.913 10.4248 85.4869 10.5055C84.7751 10.5457 84.0872 10.6146 83.5455 10.7308C83.2752 10.7888 83.0312 10.8605 82.8355 10.9516C82.6469 11.0394 82.4645 11.1626 82.3729 11.3458L82.8111 11.565C82.8278 11.5316 82.8863 11.4685 83.0422 11.3959C83.1911 11.3266 83.3953 11.2641 83.6483 11.2099C84.1529 11.1017 84.8112 11.0345 85.5146 10.9947C86.9191 10.9153 88.4639 10.9472 89.2355 10.9632L89.2456 10.4733ZM84.5835 4.15474C85.0659 4.20612 85.4191 4.32336 85.6854 4.49773C85.9491 4.67034 86.1441 4.90966 86.2936 5.23414C86.6017 5.9029 86.7026 6.89423 86.8008 8.30908L87.2896 8.27516C87.1933 6.88697 87.0919 5.79599 86.7386 5.0291C86.5574 4.63575 86.3069 4.31892 85.9538 4.08777C85.6034 3.8584 85.1687 3.72431 84.6354 3.6675L84.5835 4.15474ZM82.1682 7.43783C82.2411 6.71798 82.329 5.87947 82.6665 5.22412C82.8322 4.90239 83.054 4.63396 83.3574 4.44716C83.6602 4.26071 84.0617 4.1449 84.6044 4.15607L84.6145 3.66617C83.9944 3.65341 83.4967 3.78597 83.1005 4.0299C82.7049 4.27347 82.4277 4.61742 82.2308 4.99978C81.8432 5.75258 81.7515 6.68903 81.6807 7.38849L82.1682 7.43783ZM82.11 7.95977C82.1316 7.80013 82.1495 7.62236 82.1682 7.43783L81.6807 7.38849C81.6618 7.57517 81.6447 7.74429 81.6244 7.89428L82.11 7.95977ZM86.8884 8.10385C86.5638 8.37416 86.0875 8.57501 85.5406 8.69767C84.9968 8.81964 84.402 8.86003 83.8569 8.82349C83.308 8.78668 82.83 8.67325 82.5092 8.50343C82.186 8.33232 82.085 8.14534 82.11 7.95977L81.6244 7.89428C81.5592 8.37805 81.8776 8.72349 82.28 8.93649C82.6848 9.15078 83.2387 9.27313 83.8241 9.31239C84.4135 9.3519 85.0556 9.30863 85.6479 9.17579C86.2371 9.04364 86.7959 8.81856 87.202 8.48039L86.8884 8.10385Z" fill="white"/>
<path fill-rule="evenodd" clip-rule="evenodd" d="M146.125 10.7183C146.316 10.7223 146.459 10.7252 146.54 10.7252C147.27 10.7252 146.54 6.10084 146.54 6.10084C145.478 2.72039 144.538 1.36945 141.425 1.23308C137.512 1.6434 136.067 3.42633 135.822 11.4554C136.386 29.6797 138.253 30.9028 141.912 31.1698C145.71 30.9501 146.431 29.0841 146.783 24.5984C146.783 24.5984 147.27 16.8099 146.783 16.5665C146.737 16.5434 146.687 16.5171 146.635 16.4889C146.13 16.2207 145.33 15.7951 144.348 16.5665C144.349 17.0735 144.353 17.567 144.356 18.0464C144.394 24.0841 144.418 27.8933 141.912 28.2492C140.305 28.3532 139.424 28.2129 138.989 16.5665C138.911 13.0598 138.989 12.4289 139.476 11.4554C139.909 10.5893 144.583 10.6863 146.125 10.7183ZM143.929 8.29212C143.735 5.48908 143.525 4.12749 141.494 3.91112C139.168 3.86325 138.952 5.99385 138.808 7.41316C138.79 7.59877 138.772 7.77221 138.751 7.92703C138.571 9.2657 142.468 9.50908 143.929 8.29212Z" fill="white"/>
<path d="M146.125 10.7183L146.13 10.4733L146.13 10.4733L146.125 10.7183ZM146.54 6.10084L146.782 6.0626L146.779 6.0447L146.773 6.0274L146.54 6.10084ZM141.425 1.23308L141.435 0.988313L141.417 0.987516L141.399 0.989414L141.425 1.23308ZM135.822 11.4554L135.577 11.4479L135.577 11.4554L135.578 11.463L135.822 11.4554ZM141.912 31.1698L141.894 31.4142L141.91 31.4154L141.926 31.4144L141.912 31.1698ZM146.783 24.5984L147.028 24.6175L147.028 24.6136L146.783 24.5984ZM146.783 16.5665L146.893 16.3474L146.893 16.3474L146.783 16.5665ZM146.635 16.4889L146.52 16.7052L146.52 16.7052L146.635 16.4889ZM144.348 16.5665L144.196 16.3738L144.102 16.4478L144.103 16.5675L144.348 16.5665ZM144.356 18.0464L144.601 18.0449L144.601 18.0449L144.356 18.0464ZM141.912 28.2492L141.928 28.4937L141.937 28.4931L141.946 28.4917L141.912 28.2492ZM138.989 16.5665L138.744 16.572L138.744 16.5757L138.989 16.5665ZM139.476 11.4554L139.257 11.3458L139.257 11.3458L139.476 11.4554ZM141.494 3.91112L141.519 3.6675L141.509 3.66639L141.499 3.66617L141.494 3.91112ZM143.929 8.29212L144.086 8.48039L144.182 8.40019L144.174 8.27516L143.929 8.29212ZM138.808 7.41316L138.565 7.38849L138.565 7.38849L138.808 7.41316ZM138.751 7.92703L138.994 7.95977L138.994 7.95977L138.751 7.92703ZM146.54 10.4802C146.462 10.4802 146.323 10.4773 146.13 10.4733L146.12 10.9632C146.309 10.9672 146.456 10.9702 146.54 10.9702V10.4802ZM146.54 6.10084C146.298 6.13908 146.298 6.13908 146.298 6.1391C146.298 6.13913 146.298 6.13916 146.298 6.13922C146.298 6.13934 146.298 6.13952 146.298 6.13978C146.298 6.14029 146.298 6.14108 146.298 6.14214C146.299 6.14426 146.299 6.14748 146.3 6.15175C146.301 6.16029 146.303 6.17306 146.306 6.18977C146.311 6.2232 146.318 6.2724 146.327 6.33512C146.346 6.46056 146.371 6.64 146.4 6.85539C146.456 7.28659 146.524 7.86007 146.57 8.43233C146.615 9.00757 146.636 9.56984 146.604 9.98337C146.587 10.193 146.558 10.3445 146.522 10.4365C146.48 10.5415 146.471 10.4802 146.54 10.4802V10.9702C146.791 10.9702 146.919 10.7644 146.977 10.6165C147.041 10.4557 147.075 10.2458 147.092 10.022C147.128 9.56841 147.104 8.97459 147.058 8.39374C147.012 7.8099 146.943 7.22729 146.885 6.79142C146.857 6.57328 146.831 6.39143 146.812 6.26398C146.803 6.20025 146.795 6.15009 146.79 6.11578C146.787 6.09863 146.785 6.08543 146.784 6.07647C146.783 6.07199 146.783 6.06858 146.782 6.06625C146.782 6.06509 146.782 6.0642 146.782 6.06359C146.782 6.06329 146.782 6.06305 146.782 6.06289C146.782 6.06281 146.782 6.06274 146.782 6.06269C146.782 6.06264 146.782 6.0626 146.54 6.10084ZM141.414 1.47784C142.935 1.54447 143.878 1.90482 144.576 2.62134C145.288 3.35279 145.775 4.48378 146.306 6.17429L146.773 6.0274C146.242 4.33746 145.728 3.10275 144.927 2.27952C144.111 1.44137 143.027 1.05805 141.435 0.988313L141.414 1.47784ZM136.067 11.4628C136.189 7.44672 136.613 5.05223 137.459 3.61124C138.283 2.20664 139.53 1.67808 141.45 1.47674L141.399 0.989414C139.406 1.1984 137.974 1.76647 137.036 3.36318C136.12 4.9235 135.7 7.435 135.577 11.4479L136.067 11.4628ZM141.93 30.9255C141.021 30.8592 140.27 30.7351 139.626 30.3319C138.987 29.9322 138.42 29.2367 137.935 27.9596C136.957 25.3869 136.349 20.5663 136.067 11.4478L135.578 11.463C135.859 20.5688 136.466 25.472 137.477 28.1336C137.986 29.4737 138.608 30.273 139.366 30.7473C140.118 31.218 140.973 31.347 141.894 31.4142L141.93 30.9255ZM146.539 24.5792C146.362 26.8288 146.095 28.3539 145.436 29.3485C144.796 30.3127 143.758 30.8177 141.898 30.9252L141.926 31.4144C143.864 31.3023 145.085 30.7644 145.844 29.6192C146.583 28.5044 146.852 26.8537 147.028 24.6175L146.539 24.5792ZM146.674 16.7857C146.651 16.7745 146.637 16.7615 146.629 16.7532C146.621 16.745 146.617 16.7392 146.617 16.7387C146.617 16.7381 146.618 16.7404 146.621 16.7467C146.624 16.7529 146.627 16.7616 146.631 16.7735C146.647 16.8237 146.665 16.9033 146.681 17.0157C146.712 17.2385 146.733 17.552 146.744 17.9315C146.767 18.6883 146.751 19.6787 146.721 20.6662C146.691 21.6526 146.645 22.6319 146.607 23.3649C146.588 23.7313 146.571 24.036 146.559 24.249C146.553 24.3556 146.548 24.4391 146.544 24.4961C146.542 24.5245 146.541 24.5463 146.54 24.561C146.54 24.5683 146.539 24.5738 146.539 24.5775C146.539 24.5794 146.539 24.5808 146.539 24.5817C146.539 24.5822 146.539 24.5825 146.539 24.5827C146.539 24.5828 146.539 24.5829 146.539 24.583C146.539 24.583 146.539 24.5831 146.783 24.5984C147.028 24.6136 147.028 24.6136 147.028 24.6135C147.028 24.6135 147.028 24.6134 147.028 24.6133C147.028 24.613 147.028 24.6127 147.028 24.6122C147.028 24.6112 147.028 24.6098 147.028 24.6079C147.028 24.6041 147.029 24.5985 147.029 24.591C147.03 24.5762 147.031 24.5542 147.033 24.5256C147.037 24.4683 147.042 24.3843 147.048 24.2774C147.06 24.0635 147.077 23.7578 147.096 23.3903C147.135 22.6554 147.18 21.6723 147.211 20.6813C147.241 19.6912 147.257 18.6889 147.234 17.9169C147.222 17.532 147.201 17.1971 147.166 16.9473C147.148 16.8235 147.126 16.7109 147.096 16.6202C147.081 16.575 147.062 16.527 147.035 16.4833C147.01 16.4422 146.966 16.3839 146.893 16.3474L146.674 16.7857ZM146.52 16.7052C146.572 16.733 146.624 16.7609 146.674 16.7857L146.893 16.3474C146.85 16.3259 146.803 16.3011 146.75 16.2726L146.52 16.7052ZM144.499 16.7593C144.941 16.4118 145.323 16.3453 145.643 16.3813C145.976 16.4189 146.264 16.5693 146.52 16.7052L146.75 16.2726C146.501 16.1404 146.136 15.9438 145.698 15.8944C145.246 15.8435 144.736 15.9499 144.196 16.3738L144.499 16.7593ZM144.601 18.0449C144.598 17.5654 144.594 17.0722 144.593 16.5656L144.103 16.5675C144.104 17.0748 144.108 17.5686 144.111 18.048L144.601 18.0449ZM141.946 28.4917C142.643 28.3928 143.171 28.0487 143.557 27.494C143.937 26.9497 144.176 26.2105 144.329 25.3202C144.636 23.542 144.62 21.0539 144.601 18.0449L144.111 18.048C144.13 21.0767 144.144 23.512 143.846 25.2368C143.698 26.0979 143.475 26.7552 143.155 27.2138C142.843 27.6621 142.434 27.9276 141.877 28.0066L141.946 28.4917ZM138.744 16.5757C138.961 22.3912 139.29 25.3733 139.778 26.8893C140.023 27.6504 140.323 28.0926 140.717 28.318C141.105 28.5401 141.534 28.5191 141.928 28.4937L141.896 28.0047C141.486 28.0312 141.203 28.0317 140.96 27.8928C140.723 27.7572 140.475 27.4559 140.244 26.7392C139.781 25.2994 139.452 22.3882 139.234 16.5574L138.744 16.5757ZM139.257 11.3458C138.738 12.3827 138.667 13.0768 138.744 16.572L139.234 16.5611C139.156 13.0428 139.24 12.4752 139.695 11.565L139.257 11.3458ZM146.13 10.4733C145.36 10.4574 143.797 10.4248 142.371 10.5055C141.659 10.5457 140.971 10.6146 140.43 10.7308C140.159 10.7888 139.915 10.8605 139.72 10.9516C139.531 11.0394 139.349 11.1626 139.257 11.3458L139.695 11.565C139.712 11.5316 139.77 11.4685 139.926 11.3959C140.075 11.3266 140.279 11.2641 140.532 11.2099C141.037 11.1017 141.695 11.0345 142.399 10.9947C143.803 10.9153 145.348 10.9472 146.12 10.9632L146.13 10.4733ZM141.468 4.15474C141.95 4.20612 142.303 4.32336 142.569 4.49773C142.833 4.67034 143.028 4.90966 143.178 5.23414C143.486 5.9029 143.587 6.89423 143.685 8.30908L144.174 8.27516C144.077 6.88697 143.976 5.79599 143.623 5.0291C143.441 4.63575 143.191 4.31892 142.838 4.08777C142.487 3.8584 142.053 3.72431 141.519 3.6675L141.468 4.15474ZM139.052 7.43783C139.125 6.71798 139.213 5.87947 139.551 5.22412C139.716 4.90239 139.938 4.63396 140.241 4.44716C140.544 4.26071 140.946 4.1449 141.488 4.15607L141.499 3.66617C140.878 3.65341 140.381 3.78597 139.985 4.0299C139.589 4.27347 139.312 4.61742 139.115 4.99978C138.727 5.75258 138.636 6.68903 138.565 7.38849L139.052 7.43783ZM138.994 7.95977C139.016 7.80013 139.034 7.62236 139.052 7.43783L138.565 7.38849C138.546 7.57517 138.529 7.74429 138.508 7.89428L138.994 7.95977ZM143.772 8.10385C143.448 8.37416 142.972 8.57501 142.425 8.69767C141.881 8.81964 141.286 8.86003 140.741 8.82349C140.192 8.78668 139.714 8.67325 139.393 8.50343C139.07 8.33232 138.969 8.14534 138.994 7.95977L138.508 7.89428C138.443 8.37805 138.762 8.72349 139.164 8.93649C139.569 9.15078 140.123 9.27313 140.708 9.31239C141.297 9.3519 141.94 9.30863 142.532 9.17579C143.121 9.04364 143.68 8.81856 144.086 8.48039L143.772 8.10385Z" fill="white"/>
</svg>
