<svg width="100" height="26" viewBox="0 0 100 26" fill="none" xmlns="http://www.w3.org/2000/svg">
<path d="M84.3157 3.14277C88.1158 3.09646 88.3157 4.50948 87.0929 8.20704C85.5072 7.84741 85.4582 8.36836 85.6226 9.51394C86.2874 10.752 88.2364 10.8209 88.8899 10.8209C89.5434 10.8209 89.6477 9.46237 88.5632 8.69713C89.4139 3.3816 88.8072 1.42957 84.3157 1.1824C78.3559 2.58615 77.4135 4.86646 77.4544 10.004C78.0933 12.5149 82.3378 14.1271 86.2761 14.9049C90.2143 15.6828 84.628 18.8776 84.1523 18.8257C83.6767 18.7738 81.4719 20.0409 79.9049 17.0287C81.1521 16.9734 81.2671 16.6099 81.0484 15.7218C79.7767 14.6978 78.9567 14.6959 77.4544 14.9049C76.6112 15.9884 78.5979 16.5386 78.2712 17.0287C77.9446 17.5188 78.4917 18.3927 79.2514 19.8058C80.5713 21.5581 88.3726 21.1576 89.2166 18.6623C90.0606 16.167 88.5632 13.2713 87.0929 12.9446C85.6226 12.6179 79.8673 12.1471 79.5782 9.18722C79.6104 6.5441 78.718 3.82986 84.3157 3.14277Z" fill="#250D3C" stroke="#250D3C" stroke-width="0.326727"/>
<path d="M47.3949 21.1126C46.2973 21.5877 43.3109 2.16243 43.4742 1.67234C43.6376 1.18226 44.5069 0.725443 45.2712 1.67234C46.7902 11.7874 47.0808 12.4574 47.7217 14.7414C48.621 10.5715 47.8902 14.4575 50.4989 1.67234C51.2662 0.685158 51.5032 1.17174 52.1325 1.67234C52.7618 2.17295 48.6822 21.5769 47.3949 21.1126Z" fill="#250D3C" stroke="#250D3C" stroke-width="0.326727"/>
<path d="M26.4846 1.67251C25.8067 0.896435 24.9564 0.848538 24.5242 1.67251C24.6107 9.05225 24.2518 13.6168 24.8509 20.4593C25.6143 21.2972 26.3212 20.4593 26.6479 20.4593C26.9747 20.4593 26.6479 10.4941 26.6479 10.4941C26.3352 6.63288 26.7796 5.61785 28.7717 5.7566C30.1188 5.87059 30.6477 6.80417 31.0587 10.4941C31.0863 14.1699 31.0531 16.3504 30.8954 20.4593C31.597 21.277 31.9908 21.2126 32.6924 20.4593C32.7585 16.7319 32.8074 15.554 32.8557 10.4941C32.2179 6.99783 32.4892 4.41769 28.935 3.79623C27.6955 3.80525 27.1784 3.93918 26.6479 4.44969L26.4846 1.67251Z" fill="#250D3C" stroke="#250D3C" stroke-width="0.326727"/>
<path d="M16.1928 6.24667C16.0364 6.96911 15.72 7.1823 14.5592 7.06349C13.2728 4.27248 12.061 3.25417 8.51472 2.9794C4.04883 3.69307 2.85732 5.13604 2.797 9.35058C2.93431 13.0584 3.88102 14.6574 8.51472 15.8851C11.3092 15.7675 12.6586 15.255 14.2324 12.6179C15.4757 12.2401 15.7117 12.5964 15.7027 13.7614C13.859 16.9313 12.2373 17.7057 8.51472 17.6821C3.87844 16.8177 1.79766 15.6045 1 9.35058C1.4663 4.73643 2.15989 2.39847 8.51472 1.1824C12.7588 1.19493 14.2387 2.62115 16.1928 6.24667Z" fill="#250D3C" stroke="#250D3C" stroke-width="0.326727"/>
<path d="M21.0941 5.91996C19.7147 5.71513 19.005 5.72637 17.8268 5.91996C17.3575 6.39704 17.3157 6.74039 17.8268 7.55359C18.0727 7.61513 18.3798 7.62574 19.2971 7.55359C19.2739 7.32232 19.2934 13.7802 19.2971 18.989C18.5861 18.7429 18.27 18.7394 17.8268 18.989C17.5635 19.627 17.5024 19.9848 17.8268 20.6227C20.1097 20.8267 21.0562 20.8859 23.0545 20.6227C23.1717 19.9292 23.2733 19.5234 23.0545 18.989C22.2982 18.7444 21.9448 18.7164 21.4208 18.8257C21.3921 12.5848 21.5952 6.42663 21.0941 5.91996Z" fill="#250D3C" stroke="#250D3C" stroke-width="0.326727"/>
<circle cx="19.95" cy="2.81604" r="1.63364" fill="#250D3C"/>
<path d="M41.8403 7.39013C41.3502 7.39013 37.4295 7.22677 37.1028 7.88022C36.7761 8.53368 36.724 8.95712 36.7761 11.3109C37.0681 19.1279 37.6589 19.2221 38.7364 19.1523C40.5508 18.8945 40.3879 15.9361 40.3701 11.3109C41.0982 10.7388 41.677 11.1475 42.0037 11.3109C42.3304 11.4742 42.0037 16.7019 42.0037 16.7019C41.7675 19.7127 41.2838 20.9652 38.7364 21.1127C36.2822 20.9334 35.0301 20.1125 34.6523 7.88022C34.8161 2.49108 35.7852 1.29436 38.4097 1.01895C40.4976 1.11048 41.1279 2.01725 41.8403 4.28622C41.8403 4.28622 42.3304 7.39013 41.8403 7.39013Z" fill="#250D3C" stroke="#250D3C" stroke-width="0.326727"/>
<path d="M37.5389 3.22754C37.7497 3.07238 38.0387 2.97248 38.4462 2.97968C38.7662 3.01455 39.0011 3.09298 39.1786 3.20928C39.3557 3.32525 39.4866 3.48605 39.5869 3.704C39.7873 4.13933 39.8571 4.77812 39.9211 5.68176C39.7069 5.83812 39.4134 5.95574 39.0812 6.0303C38.7164 6.11218 38.3174 6.1393 37.9517 6.11477C37.5835 6.09006 37.2629 6.01391 37.0475 5.89984C36.8306 5.78494 36.7624 5.65909 36.7793 5.5338C36.7936 5.42705 36.8057 5.30796 36.8182 5.18418C36.8192 5.17387 36.8203 5.16353 36.8213 5.15316C36.8351 5.01711 36.8499 4.87437 36.8697 4.72855C36.9093 4.43602 36.9678 4.13884 37.0728 3.87381C37.1774 3.60956 37.3252 3.38485 37.5389 3.22754Z" fill="white" stroke="white" stroke-width="0.326727"/>
<path d="M60.4644 7.55358C59.9743 7.55358 56.0535 7.39022 55.7268 8.04367C55.4001 8.69713 55.3481 9.12057 55.4001 11.4743C55.6921 19.2914 56.2829 19.3856 57.3605 19.3158C59.1749 19.0579 59.0119 16.0995 58.9941 11.4743C59.7222 10.9022 60.301 11.3109 60.6277 11.4743C60.9545 11.6377 60.6277 16.8653 60.6277 16.8653C60.3916 19.8762 59.9079 21.1287 57.3605 21.2761C54.9062 21.0969 53.6541 20.2759 53.2764 8.04367C53.4401 2.65453 54.4092 1.45782 57.0337 1.1824C59.1217 1.27394 59.752 2.1807 60.4644 4.44967C60.4644 4.44967 60.9545 7.55358 60.4644 7.55358Z" fill="#250D3C" stroke="#250D3C" stroke-width="0.326727"/>
<path d="M56.162 3.39105C56.3728 3.23589 56.6617 3.13599 57.0693 3.14319C57.3893 3.17807 57.6242 3.2565 57.8017 3.3728C57.9787 3.48876 58.1096 3.64956 58.2099 3.86751C58.4104 4.30285 58.4801 4.94163 58.5442 5.84527C58.3299 6.00163 58.0365 6.11925 57.7043 6.19381C57.3395 6.2757 56.9404 6.30281 56.5748 6.27828C56.2066 6.25357 55.8859 6.17742 55.6706 6.06336C55.4537 5.94845 55.3854 5.82261 55.4023 5.69731C55.4167 5.59057 55.4287 5.47147 55.4412 5.34769C55.4423 5.33738 55.4433 5.32704 55.4444 5.31667C55.4582 5.18062 55.473 5.03789 55.4927 4.89206C55.5323 4.59954 55.5909 4.30235 55.6958 4.03732C55.8005 3.77307 55.9482 3.54836 56.162 3.39105Z" fill="white" stroke="white" stroke-width="0.326727"/>
<path d="M62.7515 20.2959C63.6856 21.1056 64.126 21.1505 64.7118 20.2959V15.5584C64.8088 14.7501 65.747 14.7617 67.6524 14.9049C68.2562 17.3804 68.482 18.6956 70.7563 22.2563C73.6131 25.477 75.8206 25.6869 77.1275 25.6869C78.4343 25.6869 78.4343 23.7266 77.1275 24.0533C75.8206 24.38 71.1402 19.6919 69.6128 14.5782C74.1896 11.6809 75.6914 10.0381 75.6572 7.06349C75.6429 0.917588 63.7904 0.0147623 62.7515 1.83585C61.7126 3.65694 62.438 19.6724 62.7515 20.2959Z" fill="#250D3C" stroke="#250D3C" stroke-width="0.326727"/>
<path d="M72.5854 4.99804C72.9579 5.54325 73.1841 6.2806 73.1299 7.30735C73.0136 8.11098 72.795 8.69629 72.4861 9.13349C72.1781 9.56944 71.7611 9.88522 71.2027 10.1189C70.0875 10.5855 68.4709 10.7047 66.1871 10.7861C65.8119 10.2322 65.5414 9.48196 65.3829 8.63791C65.2088 7.71096 65.1758 6.70255 65.27 5.78292C65.365 4.85682 65.5854 4.05513 65.892 3.52244C66.2009 2.98583 66.5242 2.82484 66.8386 2.87852C67.1064 2.92424 67.4056 2.96515 67.7166 3.00768C67.7424 3.01122 67.7684 3.01477 67.7945 3.01834C68.1362 3.06514 68.4948 3.11509 68.8606 3.17779C69.5946 3.30356 70.3386 3.47759 70.9975 3.76568C71.6544 4.05291 72.2078 4.44529 72.5854 4.99804Z" fill="white" stroke="white" stroke-width="0.824198"/>
<path d="M98.6919 7.55358C98.2018 7.55358 94.2811 7.39022 93.9544 8.04367C93.6276 8.69713 93.5756 9.12057 93.6276 11.4743C93.9197 19.2914 94.5105 19.3856 95.588 19.3158C97.4024 19.0579 97.2395 16.0995 97.2216 11.4743C97.9498 10.9022 98.5285 11.3109 98.8553 11.4743C99.182 11.6377 98.8553 16.8653 98.8553 16.8653C98.6191 19.8762 98.1354 21.1287 95.588 21.2761C93.1338 21.0969 91.8816 20.2759 91.5039 8.04367C91.6677 2.65453 92.6368 1.45782 95.2613 1.1824C97.3492 1.27394 97.9795 2.1807 98.6919 4.44967C98.6919 4.44967 99.182 7.55358 98.6919 7.55358Z" fill="#250D3C" stroke="#250D3C" stroke-width="0.326727"/>
<path d="M94.3895 3.39105C94.6003 3.23589 94.8893 3.13599 95.2968 3.14319C95.6168 3.17807 95.8517 3.2565 96.0292 3.3728C96.2062 3.48876 96.3371 3.64956 96.4375 3.86751C96.6379 4.30285 96.7076 4.94163 96.7717 5.84527C96.5575 6.00163 96.264 6.11925 95.9318 6.19381C95.567 6.2757 95.168 6.30281 94.8023 6.27828C94.4341 6.25357 94.1134 6.17742 93.8981 6.06336C93.6812 5.94845 93.613 5.82261 93.6298 5.69731C93.6442 5.59057 93.6563 5.47147 93.6688 5.34769C93.6698 5.33738 93.6709 5.32704 93.6719 5.31667C93.6857 5.18062 93.7005 5.03789 93.7202 4.89206C93.7598 4.59954 93.8184 4.30235 93.9234 4.03732C94.028 3.77307 94.1758 3.54836 94.3895 3.39105Z" fill="white" stroke="white" stroke-width="0.326727"/>
</svg>
