<svg width="86" height="85" viewBox="0 0 86 85" fill="none" xmlns="http://www.w3.org/2000/svg">
<path d="M61.0564 43.4438C61.0564 53.658 52.779 61.937 42.5699 61.937C32.3609 61.937 24.0835 53.658 24.0835 43.4438C24.0835 33.2296 32.3609 24.9506 42.5699 24.9506C52.779 24.9506 61.0564 33.2296 61.0564 43.4438Z" stroke="white" stroke-width="4.88372"/>
<path d="M41.9966 1.00001C40.2945 2.61351 38.7588 3.4188 41.9966 5.87529C53.4789 6.40449 58.8734 8.46352 66.9385 14.7655C76.7207 23.7279 79.3064 30.3709 80.6996 44.0172C82.2512 46.6116 83.2111 46.2398 84.9999 44.0172C83.922 30.2768 83.2112 22.584 69.232 10.177C57.2927 2.16157 51.5774 0.996997 41.9966 1.00001Z" fill="white" stroke="white" stroke-width="0.308932"/>
<path d="M44.4608 84.5587C46.1463 82.9279 47.6736 82.1069 44.4108 79.6837C32.9236 79.2723 27.5084 77.2688 19.379 71.0498C9.5055 62.1882 6.85179 55.5721 5.31878 41.9409C3.7407 39.3625 2.78467 39.7442 1.01866 41.985C2.23747 55.7136 3.02709 63.3987 17.1327 75.6616C29.1536 83.5542 34.8805 84.66 44.4608 84.5587Z" fill="white" stroke="white" stroke-width="0.308932"/>
</svg>
