<svg width="148" height="38" viewBox="0 0 148 38" fill="none" xmlns="http://www.w3.org/2000/svg">
<path d="M125.123 3.9467C130.784 3.87771 131.082 5.98282 129.26 11.4914C126.898 10.9557 126.825 11.7318 127.07 13.4385C128.06 15.2829 130.964 15.3855 131.937 15.3855C132.911 15.3855 133.066 13.3616 131.451 12.2216C132.718 4.30252 131.814 1.39438 125.123 1.02616C116.244 3.11745 114.84 6.51465 114.901 14.1686C115.853 17.9093 122.176 20.3111 128.043 21.4699C133.911 22.6287 125.588 27.3884 124.879 27.311C124.171 27.2337 120.886 29.1215 118.552 24.6339C120.41 24.5516 120.581 24.01 120.255 22.6868C118.361 21.1614 117.139 21.1585 114.901 21.4699C113.645 23.0841 116.605 23.9037 116.118 24.6339C115.631 25.364 116.446 26.666 117.578 28.7713C119.545 31.3818 131.167 30.7852 132.424 27.0677C133.682 23.3501 131.451 19.0362 129.26 18.5494C127.07 18.0626 118.496 17.3613 118.065 12.9517C118.113 9.01399 116.783 4.97033 125.123 3.9467Z" fill="white" stroke="white" stroke-width="0.486757"/>
<path d="M70.1195 30.7181C68.4843 31.4259 64.035 2.4862 64.2784 1.75607C64.5218 1.02594 65.817 0.34538 66.9556 1.75607C69.2185 16.8255 69.6515 17.8237 70.6062 21.2263C71.9461 15.014 70.8573 20.8033 74.7437 1.75607C75.8868 0.285363 76.2399 1.01028 77.1775 1.75607C78.115 2.50187 72.0372 31.4099 70.1195 30.7181Z" fill="white" stroke="white" stroke-width="0.486757"/>
<path d="M38.9671 1.75633C37.9572 0.600144 36.6904 0.528788 36.0465 1.75633C36.1754 12.7506 35.6407 19.5509 36.5333 29.7449C37.6705 30.9931 38.7236 29.7449 39.2104 29.7449C39.6972 29.7449 39.2104 14.8988 39.2104 14.8988C38.7445 9.14628 39.4065 7.63409 42.3744 7.84079C44.3813 8.01062 45.1692 9.40147 45.7816 14.8988C45.8228 20.3749 45.7733 23.6234 45.5383 29.7449C46.5835 30.9631 47.1702 30.8671 48.2154 29.7449C48.314 24.1917 48.3868 22.437 48.4588 14.8988C47.5086 9.68999 47.9127 5.84609 42.6177 4.92025C40.7711 4.93369 40.0007 5.13322 39.2104 5.89377L38.9671 1.75633Z" fill="white" stroke="white" stroke-width="0.486757"/>
<path d="M23.6342 8.57089C23.4012 9.64718 22.9298 9.96478 21.2004 9.78778C19.284 5.62975 17.4786 4.11267 12.1954 3.70332C5.54213 4.76654 3.76703 6.91627 3.67716 13.1951C3.88173 18.719 5.29213 21.1011 12.1954 22.9302C16.3586 22.755 18.3689 21.9914 20.7137 18.0626C22.5658 17.4999 22.9174 18.0306 22.9041 19.7663C20.1574 24.4887 17.7413 25.6426 12.1954 25.6074C5.28829 24.3196 2.18835 22.5122 1 13.1951C1.69469 6.32093 2.728 2.83785 12.1954 1.02616C18.5182 1.04482 20.723 3.16959 23.6342 8.57089Z" fill="white" stroke="white" stroke-width="0.486757"/>
<path d="M30.9357 8.08414C28.8807 7.77899 27.8234 7.79573 26.0681 8.08414C25.369 8.7949 25.3066 9.30642 26.0681 10.5179C26.4345 10.6096 26.892 10.6254 28.2586 10.5179C28.224 10.1734 28.253 19.7943 28.2586 27.5544C27.1993 27.1877 26.7283 27.1826 26.0681 27.5544C25.6759 28.5049 25.5849 29.0379 26.0681 29.9882C29.4691 30.2922 30.8793 30.3804 33.8563 29.9882C34.0309 28.955 34.1824 28.3504 33.8563 27.5544C32.7296 27.19 32.2031 27.1482 31.4225 27.311C31.3797 18.0134 31.6822 8.83899 30.9357 8.08414Z" fill="white" stroke="white" stroke-width="0.486757"/>
<circle cx="29.232" cy="3.45994" r="2.43378" fill="white"/>
<path d="M61.8446 10.2744C61.1145 10.2744 55.2734 10.031 54.7867 11.0045C54.2999 11.9781 54.2224 12.6089 54.2999 16.1155C54.735 27.7613 55.6151 27.9016 57.2204 27.7977C59.9235 27.4135 59.6808 23.0061 59.6542 16.1155C60.739 15.2632 61.6013 15.8721 62.088 16.1155C62.5748 16.3589 62.088 24.147 62.088 24.147C61.7362 28.6325 61.0156 30.4985 57.2204 30.7182C53.5642 30.4512 51.6987 29.2281 51.136 11.0045C51.3799 2.97581 52.8237 1.19295 56.7337 0.782646C59.8443 0.919012 60.7833 2.2699 61.8446 5.65022C61.8446 5.65022 62.5748 10.2744 61.8446 10.2744Z" fill="white" stroke="white" stroke-width="0.486757"/>
<path d="M55.4356 4.07297C55.7497 3.84181 56.1802 3.69298 56.7873 3.70371C57.2641 3.75567 57.6141 3.87252 57.8785 4.04578C58.1422 4.21854 58.3372 4.4581 58.4867 4.78281C58.7853 5.43136 58.8892 6.38302 58.9846 7.72926C58.6655 7.96221 58.2283 8.13744 57.7334 8.24852C57.1899 8.37051 56.5954 8.41091 56.0507 8.37436C55.5021 8.33755 55.0244 8.2241 54.7036 8.05416C54.3805 7.88298 54.2787 7.69549 54.3039 7.50883C54.3253 7.3498 54.3433 7.17237 54.3619 6.98797C54.3635 6.97261 54.365 6.9572 54.3666 6.94175C54.3871 6.73907 54.4092 6.52643 54.4386 6.30918C54.4976 5.87337 54.5849 5.43063 54.7412 5.03578C54.8971 4.64211 55.1172 4.30733 55.4356 4.07297Z" fill="#0E0D16" stroke="#101820" stroke-width="0.486757"/>
<path d="M89.5898 10.5179C88.8596 10.5179 83.0185 10.2745 82.5318 11.2481C82.045 12.2216 81.9675 12.8524 82.045 16.359C82.4801 28.0048 83.3603 28.1451 84.9656 28.0412C87.6687 27.657 87.4259 23.2496 87.3993 16.359C88.4841 15.5067 89.3464 16.1156 89.8331 16.359C90.3199 16.6024 89.8331 24.3905 89.8331 24.3905C89.4813 28.876 88.7607 30.742 84.9656 30.9617C81.3093 30.6947 79.4438 29.4716 78.8811 11.2481C79.1251 3.21933 80.5689 1.43646 84.4788 1.02616C87.5894 1.16252 88.5284 2.51341 89.5898 5.89373C89.5898 5.89373 90.3199 10.5179 89.5898 10.5179Z" fill="white" stroke="white" stroke-width="0.486757"/>
<path d="M83.1805 4.31662C83.4946 4.08546 83.9251 3.93663 84.5322 3.94735C85.0089 3.99931 85.3589 4.11616 85.6234 4.28942C85.8871 4.46219 86.0821 4.70174 86.2316 5.02645C86.5302 5.67501 86.6341 6.62666 86.7295 7.97291C86.4103 8.20585 85.9732 8.38108 85.4783 8.49216C84.9348 8.61415 84.3403 8.65455 83.7956 8.618C83.247 8.58119 82.7692 8.46774 82.4485 8.29781C82.1253 8.12663 82.0236 7.93914 82.0488 7.75248C82.0702 7.59345 82.0881 7.41602 82.1068 7.23161C82.1083 7.21625 82.1099 7.20085 82.1115 7.1854C82.132 6.98271 82.154 6.77007 82.1835 6.55282C82.2425 6.11701 82.3297 5.67427 82.4861 5.27943C82.642 4.88575 82.8621 4.55098 83.1805 4.31662Z" fill="#0E0D16" stroke="#101820" stroke-width="0.486757"/>
<path d="M92.9968 29.5014C94.3885 30.7077 95.0447 30.7746 95.9174 29.5014V22.4434C96.0618 21.2392 97.4595 21.2565 100.298 21.4699C101.198 25.1579 101.534 27.1173 104.922 32.422C109.178 37.2202 112.467 37.5329 114.414 37.5329C116.361 37.5329 116.361 34.6124 114.414 35.0991C112.467 35.5859 105.494 28.6016 103.219 20.9832C110.037 16.6668 112.275 14.2194 112.224 9.78778C112.202 0.631641 94.5446 -0.713386 92.9968 1.99966C91.4491 4.71271 92.5298 28.5725 92.9968 29.5014Z" fill="white" stroke="white" stroke-width="0.486757"/>
<path d="M108.459 10.1511C108.285 11.3483 107.96 12.2203 107.5 12.8717C107.041 13.5211 106.419 13.9916 105.588 14.3397C103.926 15.0349 101.518 15.2125 98.1153 15.3338C97.5563 14.5085 97.1533 13.3908 96.9171 12.1333C96.6578 10.7524 96.6086 9.25005 96.749 7.87999C96.8905 6.50029 97.2188 5.30595 97.6757 4.51234C98.1358 3.7129 98.6175 3.47307 99.0859 3.55303C99.4849 3.62115 99.9306 3.6821 100.394 3.74545C100.432 3.75072 100.471 3.75602 100.51 3.76133C101.019 3.83106 101.553 3.90548 102.098 3.99889C103.192 4.18626 104.3 4.44552 105.282 4.87471C106.26 5.30263 107.085 5.8872 107.647 6.71069C108.202 7.52294 108.539 8.62143 108.459 10.1511Z" fill="#0E0D16" stroke="#101820" stroke-width="1.22789"/>
<path d="M146.54 10.5179C145.81 10.5179 139.969 10.2745 139.482 11.2481C138.996 12.2216 138.918 12.8524 138.996 16.359C139.431 28.0048 140.311 28.1451 141.916 28.0412C144.619 27.657 144.376 23.2496 144.35 16.359C145.435 15.5067 146.297 16.1156 146.784 16.359C147.27 16.6024 146.784 24.3905 146.784 24.3905C146.432 28.876 145.711 30.742 141.916 30.9617C138.26 30.6947 136.394 29.4716 135.832 11.2481C136.076 3.21933 137.519 1.43646 141.429 1.02616C144.54 1.16252 145.479 2.51341 146.54 5.89373C146.54 5.89373 147.27 10.5179 146.54 10.5179Z" fill="white" stroke="white" stroke-width="0.486757"/>
<path d="M140.131 4.31662C140.445 4.08546 140.876 3.93663 141.483 3.94735C141.96 3.99931 142.31 4.11616 142.574 4.28942C142.838 4.46219 143.033 4.70174 143.182 5.02645C143.481 5.67501 143.585 6.62666 143.68 7.97291C143.361 8.20585 142.924 8.38108 142.429 8.49216C141.885 8.61415 141.291 8.65455 140.746 8.618C140.198 8.58119 139.72 8.46774 139.399 8.29781C139.076 8.12663 138.974 7.93914 138.999 7.75248C139.021 7.59345 139.039 7.41602 139.057 7.23161C139.059 7.21625 139.061 7.20085 139.062 7.1854C139.083 6.98271 139.105 6.77007 139.134 6.55282C139.193 6.11701 139.28 5.67427 139.437 5.27943C139.593 4.88575 139.813 4.55098 140.131 4.31662Z" fill="#0E0D16" stroke="#101820" stroke-width="0.486757"/>
</svg>
