<svg width="86" height="85" viewBox="0 0 86 85" fill="none" xmlns="http://www.w3.org/2000/svg">
<path d="M61.0564 43.4438C61.0564 53.658 52.779 61.937 42.5699 61.937C32.3609 61.937 24.0835 53.658 24.0835 43.4438C24.0835 33.2296 32.3609 24.9506 42.5699 24.9506C52.779 24.9506 61.0564 33.2296 61.0564 43.4438Z" stroke="white" stroke-width="4.88372"/>
<path d="M41.9967 1.00001C40.2946 2.61351 38.7589 3.4188 41.9967 5.87529C53.479 6.40449 58.8735 8.46352 66.9386 14.7655C76.7208 23.7279 79.3066 30.3709 80.6997 44.0172C82.2513 46.6116 83.2112 46.2398 85.0001 44.0172C83.9221 30.2768 83.2113 22.584 69.2322 10.177C57.2928 2.16157 51.5775 0.996997 41.9967 1.00001Z" fill="white" stroke="white" stroke-width="0.308932"/>
<path d="M44.4607 84.559C46.1462 82.9281 47.6735 82.1071 44.4107 79.684C32.9235 79.2726 27.5082 77.269 19.3789 71.0501C9.50538 62.1885 6.85166 55.5724 5.31865 41.9411C3.74058 39.3627 2.78454 39.7444 1.01854 41.9852C2.23734 55.7139 3.02696 63.3989 17.1326 75.6619C29.1535 83.5544 34.8804 84.6603 44.4607 84.559Z" fill="white" stroke="white" stroke-width="0.308932"/>
</svg>
